<svg xmlns="http://www.w3.org/2000/svg" width="24" height="24" fill="none"><path fill="#9DFF00" fill-rule="evenodd" d="M11.596 1.571a.999.999 0 0 0-.335.242v-.001l-.8.878a1 1 0 0 1-1.113.254L8.247 2.5a1 1 0 0 0-1.332.643l-.34 1.138a1 1 0 0 1-.893.712l-1.184.077a1 1 0 0 0-.923 1.157l.189 1.172a1 1 0 0 1-.496 1.03l-1.034.583a1 1 0 0 0-.33 1.442l.68.975a1 1 0 0 1 0 1.142l-.68.975a1 1 0 0 0 .33 1.442l1.034.583a1 1 0 0 1 .496 1.03l-.19 1.172a1 1 0 0 0 .924 1.157l1.184.077a1 1 0 0 1 .893.712l.34 1.138a1 1 0 0 0 1.333.642l1.1-.444a1 1 0 0 1 1.114.254l.799.878a1.001 1.001 0 0 0 1.479 0l.8-.878a1 1 0 0 1 1.114-.254l1.1.444a1 1 0 0 0 1.333-.642l.339-1.138a1 1 0 0 1 .894-.712l1.184-.077a1 1 0 0 0 .923-1.157l-.19-1.172a1 1 0 0 1 .497-1.03l1.034-.583a1 1 0 0 0 .33-1.442l-.68-.975a1 1 0 0 1 0-1.142l.68-.975a1 1 0 0 0-.33-1.442l-1.034-.583a1 1 0 0 1-.496-1.03l.189-1.172a1.001 1.001 0 0 0-.923-1.157l-1.184-.077a1 1 0 0 1-.893-.712l-.34-1.138a1 1 0 0 0-1.333-.642l-1.1.444a1 1 0 0 1-1.114-.254l-.8-.878a1.001 1.001 0 0 0-1.144-.242ZM7.583 11.47c.392.395.908.592 1.547.592.69 0 1.241-.212 1.655-.635.413-.423.62-.996.62-1.716 0-.7-.188-1.243-.564-1.63-.372-.387-.89-.58-1.554-.58-.693 0-1.249.214-1.667.641C7.207 8.569 7 9.147 7 9.875c0 .668.194 1.199.583 1.594Zm.752-1.654c0-.827.305-1.24.915-1.24h-.001c.564 0 .846.397.846 1.191 0 .813-.296 1.22-.89 1.22-.58 0-.87-.391-.87-1.171Zm1.503 6.563 5.852-8.756h-1.54l-5.84 8.756h1.528Zm3.34-.47c.393.395.908.592 1.548.592.689 0 1.24-.214 1.654-.641.413-.428.62-1.002.62-1.722 0-.7-.186-1.241-.558-1.624-.371-.383-.892-.574-1.56-.574-.693 0-1.249.214-1.667.641-.413.428-.62 1.005-.62 1.734 0 .668.194 1.199.583 1.594Zm.739-1.654c0-.827.303-1.24.909-1.24a.752.752 0 0 1 .626.311c.159.208.239.5.239.88 0 .813-.297 1.22-.89 1.22-.589 0-.884-.391-.884-1.171Z" clip-rule="evenodd"/></svg>