<svg width="24" height="24" fill="none" xmlns="http://www.w3.org/2000/svg"><path d="M20.283 16.407c-1.664 0-2.722-.565-3.345-1.087 1.89-.484 2.698-1.915 2.865-2.742a.702.702 0 00-.149-.588.72.72 0 00-.554-.26c-1.746 0-2.826-.621-3.435-1.162 1.288-.537 1.785-1.852 1.785-2.805a.713.713 0 00-.717-.708c-1.38 0-1.678-.285-2.22-.802a14.496 14.496 0 00-.255-.238l-.014-.44.868-1.103a.702.702 0 00.116-.654.713.713 0 00-.483-.462l-1.358-.387-.793-1.158a.72.72 0 00-1.188 0l-.793 1.158-1.358.387a.713.713 0 00-.483.462.702.702 0 00.116.654l.869 1.103-.015.44a15.2 15.2 0 00-.254.238c-.542.517-.841.802-2.221.802a.713.713 0 00-.717.708c0 .953.497 2.268 1.785 2.805-.61.54-1.69 1.163-3.435 1.163a.72.72 0 00-.554.26.702.702 0 00-.149.587c.167.827.975 2.258 2.865 2.742-.623.522-1.682 1.087-3.345 1.087a.713.713 0 00-.717.709c0 .166.067 1.033 1.397 1.784 1.205.68 3.118 1.088 5.703 1.217v1.674c0 .392.32.709.717.709h2.366a.713.713 0 00.717-.709v-1.674c2.585-.13 4.498-.537 5.703-1.217 1.33-.75 1.397-1.618 1.397-1.784a.713.713 0 00-.717-.71zM11.26 4.259a.717.717 0 00.395-.284L12 3.473l.345.502a.717.717 0 00.394.284l.591.168-.378.48a.702.702 0 00-.15.459l.02.607-.578-.207a.725.725 0 00-.488 0l-.578.207.02-.607a.702.702 0 00-.15-.459l-.378-.48.59-.168zm1.205 16.824h-.932v-.924a44.615 44.615 0 00.932 0v.924zm6.072-3.237c-.923.41-2.806.899-6.538.899-3.731 0-5.615-.489-6.537-.899-.114-.05-.215-.1-.305-.149 2.848-.525 3.885-2.506 3.934-2.603a.7.7 0 00-.032-.689.72.72 0 00-.61-.336c-1.028 0-1.816-.294-2.342-.874a2.3 2.3 0 01-.102-.12c3.102-.425 4.218-2.556 4.269-2.657.111-.22.1-.48-.031-.689a.72.72 0 00-.61-.336c-.692 0-1.141-.236-1.412-.743a1.83 1.83 0 01-.1-.22c.945-.105 1.48-.395 1.973-.807.177.09.385.107.576.039L12 7.186l1.33.476a.724.724 0 00.575-.039c.493.412 1.029.702 1.972.806-.027.073-.06.147-.099.22-.271.508-.72.744-1.412.744a.72.72 0 00-.61.336.701.701 0 00-.03.69c.05.1 1.166 2.231 4.268 2.656a2.26 2.26 0 01-.102.12c-.526.58-1.314.874-2.342.874a.72.72 0 00-.61.336.701.701 0 00-.032.69c.05.096 1.086 2.077 3.934 2.602-.09.049-.191.099-.304.15z" fill="#fff"/></svg>