<svg width="71" height="71" fill="none" xmlns="http://www.w3.org/2000/svg">
  <g clip-path="url(#a)" fill="#FF606D">
    <path d="M44.46 45.562c-.443 0-.886-.169-1.223-.507l-9.444-9.443a1.729 1.729 0 0 1-.507-1.225l.02-16.504a1.73 1.73 0 0 1 1.73-1.728h.001a1.73 1.73 0 0 1 1.727 1.731l-.018 15.788 8.936 8.936a1.728 1.728 0 0 1-1.223 2.952Z"/>
    <path d="M35.5 71C15.925 71 0 55.075 0 35.5S15.925 0 35.5 0C55.074 0 71 15.925 71 35.5S55.075 71 35.5 71Zm0-67.542C17.832 3.458 3.458 17.833 3.458 35.5S17.832 67.542 35.5 67.542c17.667 0 32.041-14.375 32.041-32.042S53.169 3.458 35.5 3.458Z"/>
  </g>
  <defs>
    <clipPath id="a">
      <path fill="#fff" d="M0 0h71v71H0z"/>
    </clipPath>
  </defs>
</svg>
