<svg width="69" height="69" fill="none" xmlns="http://www.w3.org/2000/svg">
  <g clip-path="url(#a)" fill="#FF606D">
    <path d="M14.245 3.051c-2.36 0-4.29 1.918-4.29 4.263v45.86c0 2.344 1.93 4.262 4.29 4.262h41.03c2.36 0 4.29-1.918 4.29-4.263V7.314c0-2.345-1.93-4.263-4.29-4.263h-41.03Zm0-3.051h41.03c4.058 0 7.36 3.281 7.36 7.314v45.86c0 4.032-3.302 7.314-7.36 7.314h-41.03c-4.058 0-7.36-3.282-7.36-7.315V7.314C6.885 3.281 10.187 0 14.245 0Z"/>
    <path d="M8.639 10.825h52.285v3.052H8.639v-3.052Zm0 22.155h52.285v3.052H8.639V32.98Zm41.145 19.013c3.159 0 5.728-2.553 5.728-5.692 0-3.14-2.57-5.692-5.728-5.692-3.16 0-5.728 2.553-5.728 5.692 0 3.14 2.569 5.692 5.728 5.692Zm0-8.332a2.652 2.652 0 0 1 2.657 2.642 2.652 2.652 0 0 1-2.657 2.64 2.652 2.652 0 0 1-2.658-2.64 2.652 2.652 0 0 1 2.658-2.642Zm-29.87 8.332c3.16 0 5.728-2.553 5.728-5.692 0-3.14-2.569-5.692-5.728-5.692s-5.727 2.553-5.727 5.692c0 3.14 2.568 5.692 5.727 5.692Zm0-8.332a2.652 2.652 0 0 1 2.658 2.642 2.652 2.652 0 0 1-2.658 2.64 2.652 2.652 0 0 1-2.657-2.64 2.652 2.652 0 0 1 2.657-2.642Z"/>
    <path d="M59.132 36.266h3.539c3.49 0 6.328-2.821 6.328-6.289V17.02c0-3.468-2.84-6.29-6.328-6.29h-3.539v3.051h3.539c1.797 0 3.259 1.453 3.259 3.239v12.958c0 1.786-1.462 3.238-3.26 3.238h-3.538v3.05Zm-52.804 0h3.54v-3.051h-3.54c-1.796 0-3.258-1.452-3.258-3.238V17.02c0-1.786 1.462-3.239 3.258-3.239h3.54v-3.05h-3.54C2.838 10.73 0 13.55 0 17.018v12.958c0 3.468 2.839 6.289 6.328 6.289ZM49.784 69c2.768 0 5.02-2.237 5.02-4.989v-5.057h-3.07v5.057a1.946 1.946 0 0 1-1.952 1.938 1.946 1.946 0 0 1-1.95-1.938v-5.057h-3.07v5.057c0 2.752 2.25 4.989 5.02 4.989h.002Zm-29.87 0c2.769 0 5.02-2.237 5.02-4.989v-5.057h-3.07v5.057a1.946 1.946 0 0 1-1.951 1.938 1.946 1.946 0 0 1-1.95-1.938v-5.057h-3.071v5.057c0 2.752 2.251 4.989 5.02 4.989h.002Z"/>
  </g>
  <defs>
    <clipPath id="a">
      <path fill="#fff" d="M69 0H0v69h69z"/>
    </clipPath>
  </defs>
</svg>
