<svg width="76" height="71" fill="none" xmlns="http://www.w3.org/2000/svg">
  <g clip-path="url(#a)">
    <path d="M26.894 42.478c-2.64-.918-5.06-1.979-4.97-3.633 0-1.007 1.265-2.104 4.048-2.104 2.44 0 4.265.665 5.15 1.079l1.501-3.273c-1.175-.54-3-1.133-5.295-1.313v-4.622h-3.615v4.766c-3.687.72-5.422 3.147-5.404 5.36-.271 4.46 4.717 6.203 7.392 7.12 3.65 1.278 5.368 2.087 5.368 4.047 0 3.237-3.904 3.705-6.218 3.705-1.97 0-4.048-.54-4.916-1.061l-1.88 3.075c1.338.81 3.507 1.385 5.658 1.546v4.586h3.614v-4.693c5.368-.774 7.338-4.047 7.338-7.14 0-4.712-4.32-6.222-7.79-7.445h.019ZM48.492 0C35.244 0 20.984 2.823 20.984 9.046v9.477c0 .378.054.828.234 1.313C9.163 22.048 0 32.57 0 45.193 0 59.418 11.64 71 25.936 71c9.868 0 18.471-5.521 22.845-13.614C61.939 57.35 76 54.51 76 48.34V9.046C76 2.84 61.74 0 48.492 0ZM25.936 67.403c-12.308 0-22.321-9.963-22.321-22.21 0-12.247 10.013-22.21 22.32-22.21 12.309 0 22.322 9.963 22.322 22.21 0 12.247-10.013 22.21-22.321 22.21Zm46.45-19.063c0 1.565-7.501 5.126-22.014 5.413a25.82 25.82 0 0 0 1.41-6.833c8.169-.288 16.139-1.655 20.603-4.19v5.61Zm0-10.394c0 1.636-7.266 4.891-20.605 5.377a25.78 25.78 0 0 0-1.247-6.276c8.53-.18 17.152-1.547 21.851-4.227v5.126Zm0-9.91c0 1.62-7.953 5.36-23.37 5.432a25.801 25.801 0 0 0-4.283-6.007c1.229.054 2.476.09 3.74.09 9.164 0 18.816-1.367 23.894-4.262v4.73l.018.018Zm0-9.513c0 1.637-8.134 5.45-23.894 5.45-2.91 0-5.748-.145-8.459-.414-4.066-2.626-8.892-4.172-14.08-4.172-.234 0-.47.035-.686.035-.47-.395-.65-.719-.65-.899v-4.675s.036.018.054.035c.054.037.126.054.18.09.362.198.76.396 1.157.576l.38.162c.47.198.976.395 1.5.593.524.18 1.102.36 1.68.522.163.036.308.09.47.126.507.144 1.03.27 1.555.395.09.018.18.054.289.072.615.144 1.265.27 1.916.396.163.036.325.054.506.09.542.09 1.084.18 1.645.27.144.017.307.053.452.072a38.51 38.51 0 0 0 2.078.27c.163 0 .307.035.47.053.578.072 1.175.126 1.771.18.18 0 .362.036.542.054a87.46 87.46 0 0 0 2.17.144h.343a65.62 65.62 0 0 0 1.915.072h.597c.74 0 1.482.036 2.223.036.74 0 1.482 0 2.205-.036h.596a66.718 66.718 0 0 0 1.898-.072h.343c.723-.036 1.464-.09 2.17-.144.18 0 .36-.036.541-.054a53.606 53.606 0 0 0 1.772-.18c.162 0 .307-.036.47-.054a38.51 38.51 0 0 0 2.078-.27c.163-.017.307-.053.47-.072.56-.09 1.103-.18 1.645-.27.162-.035.343-.053.506-.09.65-.125 1.283-.25 1.916-.395.09-.018.18-.054.289-.072.524-.126 1.048-.252 1.554-.395.163-.036.307-.09.47-.126a37.016 37.016 0 0 0 1.68-.522h.019c.524-.18 1.012-.377 1.482-.593l.38-.162c.415-.18.795-.378 1.156-.576.054-.036.127-.054.181-.09.018 0 .036-.017.054-.035v4.675Zm-23.894-4.028c-15.76 0-23.894-3.813-23.894-5.45 0-1.636 8.133-5.448 23.894-5.448 15.76 0 23.893 3.812 23.893 5.449 0 1.636-8.133 5.449-23.893 5.449Z" fill="#FF606D"/>
    <rect x="3.455" y="22.903" width="43.758" height="43.516" rx="21.758" fill="#fff"/>
    <g clip-path="url(#b)">
      <path d="M24.825 48.108h4.066c4.387 0 7.958-3.598 7.958-8.022s-3.57-8.021-7.958-8.021h-8.527c-1.08 0-1.957.884-1.957 1.973v10.124h-2.632a1.964 1.964 0 0 0-1.957 1.974c0 1.09.876 1.973 1.957 1.973h2.632v2.152h-2.632a1.965 1.965 0 0 0-1.957 1.974c0 1.09.876 1.973 1.957 1.973h2.632v2.221c0 1.09.876 1.975 1.957 1.975 1.08 0 1.958-.885 1.958-1.975v-2.22h8.509a1.965 1.965 0 0 0 1.956-1.974c0-1.09-.876-1.974-1.956-1.974h-8.51V48.11h2.504Zm-2.503-12.097h6.569c2.23 0 4.043 1.828 4.043 4.075s-1.814 4.076-4.043 4.076h-6.57V36.01Z" fill="url(#c)"/>
    </g>
  </g>
  <defs>
    <clipPath id="a">
      <path fill="#fff" d="M0 0h76v71H0z"/>
    </clipPath>
    <clipPath id="b">
      <path fill="#fff" d="M13.818 32.065h23.03v26.339h-23.03z"/>
    </clipPath>
    <linearGradient id="c" x1="13.818" y1="45.234" x2="36.849" y2="45.234" gradientUnits="userSpaceOnUse">
      <stop stop-color="#FF606D"/>
      <stop offset="1" stop-color="#FF606D"/>
    </linearGradient>
  </defs>
</svg>
